<?xml version="1.0" encoding="UTF-8" standalone="no"?>
<svg
   xmlns:dc="http://purl.org/dc/elements/1.1/"
   xmlns:cc="http://creativecommons.org/ns#"
   xmlns:rdf="http://www.w3.org/1999/02/22-rdf-syntax-ns#"
   xmlns:svg="http://www.w3.org/2000/svg"
   xmlns="http://www.w3.org/2000/svg"
   xmlns:sodipodi="http://sodipodi.sourceforge.net/DTD/sodipodi-0.dtd"
   xmlns:inkscape="http://www.inkscape.org/namespaces/inkscape"
   inkscape:version="1.0 (4035a4fb49, 2020-05-01)"
   inkscape:export-ydpi="600"
   inkscape:export-xdpi="600"
   inkscape:export-filename="C:\Users\juanc\Desktop\logo2.png"
   sodipodi:docname="logo norden.svg"
   viewBox="0 0 612 792"
   id="svg35"
   height="792"
   width="612"
   version="1.1">
  <metadata
     id="metadata41">
    <rdf:RDF>
      <cc:Work
         rdf:about="">
        <dc:format>image/svg+xml</dc:format>
        <dc:type
           rdf:resource="http://purl.org/dc/dcmitype/StillImage" />
        <dc:title></dc:title>
      </cc:Work>
    </rdf:RDF>
  </metadata>
  <defs
     id="defs39" />
  <sodipodi:namedview
     inkscape:current-layer="Layer1002"
     inkscape:window-maximized="1"
     inkscape:window-y="-9"
     inkscape:window-x="-9"
     inkscape:cy="646.95888"
     inkscape:cx="349.87093"
     inkscape:zoom="1.3808888"
     showgrid="false"
     id="namedview37"
     inkscape:window-height="1001"
     inkscape:window-width="1920"
     inkscape:pageshadow="2"
     inkscape:pageopacity="0"
     guidetolerance="10"
     gridtolerance="10"
     objecttolerance="10"
     borderopacity="1"
     bordercolor="#666666"
     pagecolor="#ffffff" />
  <g
     transform="matrix(1.7507486,0,0,1.7831852,-225.92909,-44.37487)"
     id="Layer1000">
    <path
       id="path10"
       style="fill:#00a5d8;fill-rule:evenodd;stroke:#00a5d8;stroke-width:0.5;stroke-linecap:butt;stroke-linejoin:round;stroke-dasharray:none"
       d="M 260.4387,421.2952 H 152.7812 v -72.6086 h 107.6575 z" />
    <path
       id="path12"
       style="fill:#00a5d8;fill-rule:evenodd"
       d="m 149.5852,356.2243 c 0,8.7926 -0.247,65.2516 0.0829,69.0716 4.5393,0.2578 9.6228,0.0205 14.2,0.0205 30.9898,0 61.9793,0 92.9692,0 8.6042,0 7.0554,1.7611 7.0554,-6.9314 v -72.3004 c 0,-5.5666 0.449,-5.3873 -1.434,-5.3585 -8.4184,0.1282 -16.9096,0.0103 -25.3364,0.0103 -21.0681,0 -42.1358,0 -63.2037,0 -3.452,0 -9.4762,-0.4016 -12.6163,0.0963 -6.6856,1.0584 -11.7171,6.5243 -11.7171,15.3916 z m 12.4522,14.2439 c 1.1931,0.4478 2.7656,0.0733 4.0382,0.2202 0.2121,1.5514 0.0738,18.8033 0.0738,21.9067 3e-4,4.8613 0.811,3.8893 -2.9248,4.1191 -0.0645,1.3626 -0.1707,4.0433 0.0973,5.2916 l 11.0972,0.0152 0.1008,-5.2841 -2.9955,-0.079 c -0.4287,-2.1497 -0.1897,-15.8182 -0.0832,-18.8156 l 12.572,18.0084 c 1.3714,2.0225 3.073,4.1239 4.1744,6.035 l 5.0471,0.0377 0.0354,-31.1083 3.0164,-0.1208 c 0.2546,-1.067 0.2286,-4.252 0.0277,-5.3749 l -11.4735,-8e-4 -0.0448,4.5592 c 0.1556,1.2035 0.7934,0.8319 2.8789,0.8319 l 0.0555,18.2807 -4.0125,-6.0386 c -2.6659,-3.8175 -10.088,-14.7701 -12.3118,-17.5955 l -9.3348,-0.0345 z m 64.9199,0.0284 3.1076,0.171 0.0855,25.8728 -2.312,0.0421 c -0.5153,0.0573 0.1097,-0.0583 -0.3331,0.0573 -1.239,0.3252 -0.497,5.0161 -0.3839,5.1573 0.46,0.5747 12.7122,0.1802 12.9522,0.1275 0.4931,-6.9292 -0.0235,-5.2444 -3.1812,-5.4766 l 0.006,-8.5148 c 5.5339,-0.3621 8.4642,0.5476 12.0666,-3.208 4.8147,-5.0181 5.1339,-18.8691 -7.0035,-19.3732 l -14.9607,0.0343 z m -24.0366,0.2599 0.0445,25.7914 -2.8342,0.0782 c -0.0894,1.1692 -0.2642,4.4443 0.1176,5.1504 0.3981,0.5116 10.6691,0.2462 11.3604,0.2462 2.8841,0 8.9589,0.3833 11.4682,-0.0805 l 0.4905,-11.8557 -5.4953,-0.0575 c -0.3859,1.9797 -0.0623,5.0345 -0.5781,6.6181 l -7.6936,0.0244 -0.0952,-25.9853 2.883,-0.0642 0.004,-5.29 -12.4602,-0.0108 c -0.096,1.2343 -0.1017,3.1956 -0.0638,4.373 0.0304,0.9523 0.0528,0.9981 0.8876,1.0384 0.6565,0.032 1.266,-0.0355 1.9648,0.0239 z m 33.9767,11.6877 c 4.6269,0.2377 8.628,0.1556 8.6806,-5.7185 0.0537,-5.9852 -3.7437,-6.2741 -8.641,-5.9814 z" />
    <g
       id="Layer1001">
      <path
         id="path14"
         style="fill:#ffffff;fill-rule:evenodd"
         d="m 164.8992,390.6641 h 15.3632 v -6.1745 h -4.2295 v -22.3979 h 0.1243 c 0.1243,0.6055 0.9953,1.9976 2.0526,3.2689 l 20.7122,25.3035 h 6.7175 v -36.1997 h 4.2917 v -6.1746 h -15.7361 v 6.1746 h 3.9805 v 21.974 h -0.1243 c -0.5598,-1.6344 -1.7416,-3.3292 -3.6696,-5.6901 l -18.3488,-22.4585 h -12.6265 v 6.1746 h 5.5359 v 30.0252 h -4.0431 z m 53.5534,-6.1745 h -4.2917 v 6.1745 h 19.3438 c 12.0044,0 16.3584,-6.1139 16.3584,-11.6833 0,-6.9009 -5.4736,-10.4723 -11.5069,-10.4723 v -0.121 c 3.1721,0 8.8946,-2.7241 8.8946,-9.5647 0,-4.4191 -2.2392,-7.0825 -4.5406,-8.5353 -2.799,-1.7554 -6.0334,-1.9977 -12.1911,-1.9977 h -16.7314 v 6.1746 h 4.6649 z m 9.081,-30.0252 h 4.354 c 4.2917,0 6.6552,1.7554 6.6552,5.3271 0,3.8137 -3.0479,5.8113 -6.7798,5.8113 h -4.2294 z m 0,18.0393 h 5.287 c 4.6026,0 7.2149,2.5425 7.2149,5.8114 0,3.3898 -2.3014,6.1745 -7.5881,6.1745 h -4.9138 z" />
      <path
         id="path16"
         style="fill:#ffffff;fill-rule:evenodd;stroke:#ffffff;stroke-width:0.9998;stroke-linecap:butt;stroke-linejoin:miter;stroke-dasharray:none"
         d="m 163.5873,412.7348 h 8.5839 l 0.33,-2.8917 h -0.9078 l -0.2888,2.0082 h -5.1586 l 1.1142,-12.2903 h 1.4031 l 0.0826,-0.8835 h -4.1886 l -0.0827,0.8835 h 1.7126 l -1.1143,12.2903 h -1.403 z m 16.8168,0 h 2.6825 l 0.0826,-0.8835 h -1.692 l 0.4952,-5.9443 c 0.1238,-1.4459 0.2683,-2.6105 0.4126,-3.3135 h -0.5983 c -0.4126,-0.1606 -1.1761,-0.3817 -2.0016,-0.3817 -3.9617,0 -5.4678,3.5144 -5.4678,6.9887 0,1.727 0.4126,3.7352 2.2904,3.7352 2.1665,0 3.5284,-2.7914 4.1886,-4.7795 0.1238,-0.3615 0.2064,-0.7431 0.3095,-1.1245 h 0.0412 c -0.0824,0.3814 -0.1857,0.7429 -0.2269,1.1245 z m 0.7636,-8.7154 c -0.9286,5.6429 -3.0125,7.9524 -4.4158,7.9524 -0.8666,0 -1.3618,-0.9037 -1.3618,-2.7914 0,-1.8878 0.3509,-3.2132 1.0318,-4.3579 0.6395,-1.0241 1.7126,-1.8073 3.1156,-1.8073 0.7016,0 1.3207,0.221 1.7333,0.3816 z m 13.2263,-4.4584 h 1.6094 c 1.6302,0 3.4458,0.4419 3.4458,2.8517 0,1.6267 -0.9078,3.6349 -4.2712,3.6349 -0.4333,0 -1.0109,-0.0401 -1.3619,-0.0804 z m -3.673,13.1738 h 4.3539 l 0.0826,-0.8835 h -1.8778 l 0.4541,-5.0808 c 0.2887,0.0401 1.0316,0.0805 1.4442,0.0805 3.6936,0 5.3442,-1.8878 5.3442,-4.5588 0,-1.7471 -0.8459,-2.6908 -1.8982,-3.1529 -0.8254,-0.3614 -1.6921,-0.4618 -2.7651,-0.4618 h -4.1679 l -0.0826,0.8835 h 1.7125 l -1.1142,12.2903 h -1.4031 z m 16.8169,0 h 2.6825 l 0.0826,-0.8835 h -1.6921 l 0.4952,-5.9443 c 0.1238,-1.4459 0.2684,-2.6105 0.4126,-3.3135 h -0.5983 c -0.4126,-0.1606 -1.1761,-0.3817 -2.0016,-0.3817 -3.9617,0 -5.4678,3.5144 -5.4678,6.9887 0,1.727 0.4126,3.7352 2.2904,3.7352 2.1665,0 3.5284,-2.7914 4.1886,-4.7795 0.1238,-0.3615 0.2064,-0.7431 0.3095,-1.1245 h 0.0412 c -0.0824,0.3814 -0.1857,0.7429 -0.2269,1.1245 z m 0.7635,-8.7154 c -0.9285,5.6429 -3.0125,7.9524 -4.4157,7.9524 -0.8667,0 -1.3619,-0.9037 -1.3619,-2.7914 0,-1.8878 0.351,-3.2132 1.0319,-4.3579 0.6395,-1.0241 1.7125,-1.8073 3.1155,-1.8073 0.7017,0 1.3207,0.221 1.7333,0.3816 z m 3.9308,-0.7229 h 1.7744 l -0.3919,5.201 c -0.0414,0.462 -0.289,3.3737 -0.4333,4.2373 h 0.9904 c 0.6395,-6.7074 3.2979,-9.5588 4.8628,-9.5588 0.9044,0 0.987,0.9838 0.987,1.6266 0,2.249 -0.533,5.3618 -0.9251,7.9322 h 0.987 c 0.2062,-1.3655 0.5364,-3.2734 0.9285,-4.5385 0.8254,-2.6909 2.5999,-5.0203 3.941,-5.0203 1.0523,0 1.0731,1.0242 1.0731,1.7269 0,1.968 -0.7636,6.0246 -1.0112,7.8319 h 2.7444 l 0.0826,-0.8835 h -1.6713 c 0.2888,-1.9682 0.8459,-5.4422 0.8459,-7.0288 0,-0.9036 -0.0207,-2.6107 -1.7952,-2.6107 -2.6206,0 -4.1269,3.6752 -4.4776,4.9805 h -0.0412 c 0.1857,-0.964 0.3095,-1.8475 0.3095,-2.4701 0,-1.2853 -0.2064,-2.5104 -1.771,-2.5104 -2.8855,0 -4.3678,4.3579 -4.6154,5.3621 -0.0412,0.2007 -0.0823,0.3814 -0.1442,0.5823 h -0.0415 c 0.1857,-0.9438 0.3095,-1.8676 0.3922,-2.8114 l 0.2683,-2.9321 h -2.7856 z m 25.7409,2.47 c 0,2.8515 -1.0318,6.2855 -4.3331,6.2855 -0.7428,0 -1.3619,-0.2209 -1.8366,-0.3615 0.0619,-0.482 0.1445,-1.004 0.2064,-1.486 0.3921,-3.1126 2.6411,-7.1089 4.4362,-7.1089 1.2588,0 1.5271,1.4459 1.5271,2.6709 z m -9.1615,12.0088 h 4.1886 l 0.0827,-0.8836 h -1.7747 l 0.4333,-4.2975 c 0.4333,0.1406 1.0523,0.2611 2.0223,0.2611 3.5696,0 5.2821,-3.6548 5.2821,-6.8279 0,-1.5462 -0.3714,-3.8156 -2.3523,-3.8156 -2.1251,0 -3.6315,2.2493 -4.4155,4.6392 -0.1238,0.3814 -0.1857,0.7428 -0.289,1.1245 h -0.0412 c 0.2064,-1.1046 0.3921,-2.0885 0.4952,-3.3135 l 0.2065,-2.2493 h -2.7444 l -0.0827,0.8838 h 1.7333 l -1.238,13.5952 h -1.4238 z m 18.4673,-5.0405 h 2.6825 l 0.0826,-0.8835 h -1.6921 l 0.4952,-5.9443 c 0.1238,-1.4459 0.2683,-2.6105 0.4126,-3.3135 h -0.5983 c -0.4126,-0.1606 -1.1761,-0.3817 -2.0016,-0.3817 -3.9617,0 -5.4678,3.5144 -5.4678,6.9887 0,1.727 0.4126,3.7352 2.2904,3.7352 2.1665,0 3.5284,-2.7914 4.1886,-4.7795 0.1238,-0.3615 0.2064,-0.7431 0.3095,-1.1245 h 0.0412 c -0.0824,0.3814 -0.1857,0.7429 -0.2269,1.1245 z m 0.7635,-8.7154 c -0.9285,5.6429 -3.0125,7.9524 -4.4157,7.9524 -0.8667,0 -1.3619,-0.9037 -1.3619,-2.7914 0,-1.8878 0.351,-3.2132 1.0319,-4.3579 0.6395,-1.0241 1.7125,-1.8073 3.1155,-1.8073 0.7017,0 1.3207,0.221 1.7333,0.3816 z" />
    </g>
  </g>
  <g
     id="Layer1002">
    <text
       style="font-size:22.178px;stroke-width:1.84813"
       transform="scale(1.0218768,0.97859156)"
       id="text22"
       y="629.21582"
       x="238.87294"><tspan
         style="stroke-width:1.84911"
         id="tspan20"
         fill="#1b1918"
         font-size="73.0036px"
         font-family="'Caecilia LT Std Roman'">NORDEN</tspan></text>
    <text
       style="font-size:21.3013px;stroke-width:1.77507"
       transform="scale(0.99548578,1.0045347)"
       id="text26"
       y="671.13666"
       x="246.56256"><tspan
         style="stroke-width:1.77603"
         id="tspan24"
         fill="#1b1918"
         font-size="66.5676px"
         font-family="'Caecilia LT Std Roman'">BROKERS</tspan></text>
    <path
       id="path28"
       style="fill:#00a5d8;fill-rule:evenodd;stroke:#00a5d8;stroke-width:0.912779;stroke-linecap:butt;stroke-linejoin:miter;stroke-dasharray:none"
       d="M 567.76413,685.06388 H 248.40541" />
    <text
       style="font-size:25.1446px;stroke-width:2.09534"
       transform="scale(1.1197583,0.89304987)"
       id="text32"
       y="793.23737"
       x="222.30911"><tspan
         style="stroke-width:2.09647"
         id="tspan30"
         fill="#1b1918"
         font-size="29.3355px"
         font-family="'Caecilia LT Std Light'">Asesores en seguros</tspan></text>
  </g>
</svg>
